<?xml version="1.0" encoding="UTF-8"?>
<!DOCTYPE svg PUBLIC "-//W3C//DTD SVG 1.1//EN" "http://www.w3.org/Graphics/SVG/1.1/DTD/svg11.dtd">
<!-- Creator: CorelDRAW 2021 (64-Bit) -->
<svg xmlns="http://www.w3.org/2000/svg" xml:space="preserve" width="16.7924mm" height="14.8514mm" version="1.1" style="shape-rendering:geometricPrecision; text-rendering:geometricPrecision; image-rendering:optimizeQuality; fill-rule:evenodd; clip-rule:evenodd"
viewBox="0 0 1693.46 1497.72"
 xmlns:xlink="http://www.w3.org/1999/xlink"
 xmlns:xodm="http://www.corel.com/coreldraw/odm/2003">
 <defs>
  <style type="text/css">
   <![CDATA[
    .fil0 {fill:#4E565A}
    .fil1 {fill:url(#id0)}
   ]]>
  </style>
  <linearGradient id="id0" gradientUnits="userSpaceOnUse" x1="78.82" y1="1319.07" x2="1701.93" y2="-56.43">
   <stop offset="0" style="stop-opacity:1; stop-color:#A28757"/>
   <stop offset="0.341176" style="stop-opacity:1; stop-color:#D1B669"/>
   <stop offset="0.831373" style="stop-opacity:1; stop-color:#E3CB85"/>
   <stop offset="1" style="stop-opacity:1; stop-color:#A08A58"/>
  </linearGradient>
 </defs>
 <g id="Layer_x0020_1">
  <metadata id="CorelCorpID_0Corel-Layer"/>
  <path class="fil0" d="M931.95 776.17c65.42,-37.84 268.28,-169.99 327.92,-212l0 -350.41 -234.64 0 -79.98 -149.43 0 -37.9 668.23 0 79.98 151.55 0 35.78 -212.59 0 0 1283.96 -37.89 0 -183.12 -105.24 6.32 -586.44c-118.9,70.84 -218.73,134.63 -247.18,150.18 5.07,27.39 7.65,56.84 7.65,88.96 0,103.84 -31.93,186.99 -95.77,249.42 -63.85,62.44 -147.69,93.67 -251.52,93.67 -147.35,0 -273.98,-51.92 -379.93,-155.76 -105.94,-103.83 -201.01,-228.72 -285.2,-374.66l71.57 -52.62c70.16,108.05 149.44,198.2 237.85,270.47 88.4,72.27 176.8,108.4 265.21,108.4 71.56,0 130.5,-21.75 176.8,-65.26 46.31,-43.5 69.46,-95.41 69.46,-155.76 0,-82.79 -27.37,-152.25 -82.09,-208.37 -79.99,25.25 -176.8,45.6 -290.47,61.03l-88.4 -159.96 23.15 -52.62c144.53,-9.82 245.56,-30.87 303.09,-63.15 70.16,-40.69 105.24,-101.72 105.24,-183.12 0,-43.5 -18.6,-82.09 -55.78,-115.76 -37.19,-33.68 -82.44,-50.51 -135.77,-50.51 -57.52,0 -111.9,13.32 -163.12,39.99 -51.22,26.66 -104.18,65.25 -158.91,115.76l-107.35 -206.27c49.11,-36.49 108.75,-68.76 178.91,-96.82 70.16,-28.07 129.09,-42.09 176.8,-42.09 57.53,0 119.62,23.51 186.28,70.51 66.65,47 122.43,104.89 167.34,173.65 44.9,68.76 67.36,135.41 67.36,199.96 0,95.42 -35.78,179.62 -107.35,252.58 29.63,26.1 55.64,51.77 77.87,78.3z"/>
  <path class="fil1" d="M917.71 775c65.42,-37.84 268.28,-169.99 327.92,-212l0 -350.4 -234.63 0 -79.99 -149.44 0 -37.89 668.23 0 79.99 151.55 0 35.78 -212.6 0 0 1283.95 -37.89 0 -183.12 -105.24 6.32 -586.43c-118.9,70.83 -218.73,134.62 -247.18,150.17 5.07,27.39 7.65,56.84 7.65,88.97 0,103.84 -31.92,186.98 -95.77,249.42 -63.85,62.44 -147.68,93.67 -251.52,93.67 -147.34,0 -273.98,-51.92 -379.93,-155.76 -105.94,-103.84 -201.01,-228.73 -285.2,-374.67l71.57 -52.62c70.16,108.05 149.44,198.2 237.85,270.48 88.4,72.26 176.8,108.39 265.21,108.39 71.57,0 130.51,-21.74 176.8,-65.25 46.31,-43.5 69.46,-95.42 69.46,-155.76 0,-82.8 -27.36,-152.25 -82.09,-208.38 -79.98,25.26 -176.8,45.6 -290.47,61.04l-88.4 -159.97 23.15 -52.62c144.53,-9.82 245.56,-30.87 303.09,-63.14 70.16,-40.69 105.24,-101.73 105.24,-183.12 0,-43.51 -18.6,-82.09 -55.78,-115.77 -37.19,-33.67 -82.44,-50.51 -135.76,-50.51 -57.53,0 -111.91,13.33 -163.13,40 -51.22,26.65 -104.18,65.25 -158.91,115.76l-107.34 -206.27c49.11,-36.49 108.74,-68.76 178.9,-96.82 70.17,-28.07 129.1,-42.1 176.81,-42.1 57.53,0 119.62,23.51 186.27,70.52 66.65,47 122.43,104.89 167.34,173.65 44.91,68.76 67.36,135.41 67.36,199.96 0,95.41 -35.78,179.61 -107.35,252.58 29.64,26.1 55.65,51.77 77.87,78.29z"/>
 </g>
</svg>
